<svg width="1280" height="640" viewBox="0 0 1280 640" fill="none" xmlns="http://www.w3.org/2000/svg">
  <defs>
    <radialGradient id="g1" cx="18%" cy="18%" r="70%">
      <stop offset="0" stop-color="#44ff99" stop-opacity="0.9"/>
      <stop offset="0.45" stop-color="#0a3d22" stop-opacity="0.35"/>
      <stop offset="1" stop-color="#020704" stop-opacity="1"/>
    </radialGradient>
    <linearGradient id="card" x1="180" y1="88" x2="1098" y2="548">
      <stop stop-color="#092815"/>
      <stop offset="0.45" stop-color="#041008"/>
      <stop offset="1" stop-color="#0b3019"/>
    </linearGradient>
    <linearGradient id="stream" x1="430" y1="310" x2="920" y2="310">
      <stop stop-color="#39ff88"/>
      <stop offset="0.52" stop-color="#00d4ff"/>
      <stop offset="1" stop-color="#b8ffd2"/>
    </linearGradient>
    <filter id="glow" x="-30%" y="-30%" width="160%" height="160%">
      <feGaussianBlur stdDeviation="8" result="blur"/>
      <feMerge><feMergeNode in="blur"/><feMergeNode in="SourceGraphic"/></feMerge>
    </filter>
    <pattern id="grid" width="42" height="42" patternUnits="userSpaceOnUse">
      <path d="M 42 0 L 0 0 0 42" fill="none" stroke="#39ff88" stroke-opacity="0.08" stroke-width="1"/>
    </pattern>
  </defs>
  <rect width="1280" height="640" fill="#020704"/>
  <rect width="1280" height="640" fill="url(#g1)"/>
  <rect width="1280" height="640" fill="url(#grid)"/>
  <circle cx="1060" cy="140" r="120" fill="#00d46a" opacity="0.12" filter="url(#glow)"/>
  <circle cx="180" cy="520" r="150" fill="#39ff88" opacity="0.12" filter="url(#glow)"/>
  <rect x="108" y="78" width="1064" height="484" rx="34" fill="url(#card)" stroke="#39ff88" stroke-opacity="0.42" stroke-width="2"/>
  <rect x="108" y="78" width="1064" height="58" rx="34" fill="#021006" opacity="0.88"/>
  <circle cx="151" cy="108" r="9" fill="#39ff88"/>
  <circle cx="181" cy="108" r="9" fill="#c8ff6b"/>
  <circle cx="211" cy="108" r="9" fill="#ff6688"/>
  <text x="246" y="115" fill="#82ad92" font-family="Consolas, monospace" font-size="18">npvt-terminal-converter / local</text>
  <g filter="url(#glow)">
    <rect x="195" y="214" width="172" height="218" rx="26" fill="#031108" stroke="#39ff88" stroke-width="3"/>
    <path d="M329 214 L367 252 L329 252 Z" fill="#123f24" stroke="#39ff88" stroke-width="3"/>
    <text x="230" y="320" fill="#39ff88" font-family="Consolas, monospace" font-size="34" font-weight="700">.npvt</text>
    <text x="225" y="356" fill="#b8ffd2" font-family="Consolas, monospace" font-size="16">encrypted</text>
    <text x="224" y="381" fill="#82ad92" font-family="Consolas, monospace" font-size="15">local file</text>
  </g>
  <path d="M420 280 C540 210 650 230 772 282 S925 358 1010 296" stroke="url(#stream)" stroke-width="8" stroke-linecap="round" opacity="0.92" filter="url(#glow)"/>
  <path d="M420 332 C552 380 668 385 805 332 S930 238 1020 352" stroke="url(#stream)" stroke-width="5" stroke-linecap="round" opacity="0.72"/>
  <path d="M420 375 C545 455 685 442 826 395 S940 342 1026 417" stroke="url(#stream)" stroke-width="4" stroke-linecap="round" opacity="0.52"/>
  <g font-family="Consolas, monospace" font-size="18" font-weight="700">
    <rect x="855" y="220" width="104" height="38" rx="19" fill="#062915" stroke="#39ff88" stroke-opacity="0.7"/>
    <text x="881" y="245" fill="#b8ffd2">VLESS</text>
    <rect x="980" y="272" width="104" height="38" rx="19" fill="#062915" stroke="#00d4ff" stroke-opacity="0.7"/>
    <text x="1004" y="297" fill="#d8ffff">VMESS</text>
    <rect x="850" y="350" width="120" height="38" rx="19" fill="#062915" stroke="#c8ff6b" stroke-opacity="0.7"/>
    <text x="875" y="375" fill="#efffc0">TROJAN</text>
    <rect x="1000" y="410" width="70" height="38" rx="19" fill="#062915" stroke="#39ff88" stroke-opacity="0.7"/>
    <text x="1024" y="435" fill="#b8ffd2">SS</text>
  </g>
  <text x="190" y="178" fill="#39ff88" font-family="Consolas, monospace" font-size="24" font-weight="700">OFFLINE · LOCAL · SINGLE HTML</text>
  <text x="190" y="505" fill="#e7fff0" font-family="Inter, Segoe UI, Arial, sans-serif" font-size="62" font-weight="800">NPVT Terminal Converter</text>
  <text x="195" y="538" fill="#82ad92" font-family="Consolas, monospace" font-size="18">TheLouisMahdi</text>
</svg>
